<mxfile host="65bd71144e">
    <diagram id="LtGeMFGe1ruGLRXMh90t" name="Page-1">
        <mxGraphModel dx="245" dy="187" grid="1" gridSize="10" guides="1" tooltips="1" connect="1" arrows="1" fold="1" page="1" pageScale="1" pageWidth="850" pageHeight="1100" math="0" shadow="0">
            <root>
                <mxCell id="0"/>
                <mxCell id="1" parent="0"/>
                <mxCell id="12" value="" style="edgeStyle=none;html=1;entryX=-0.024;entryY=0.403;entryDx=0;entryDy=0;entryPerimeter=0;" edge="1" parent="1" source="2" target="9">
                    <mxGeometry relative="1" as="geometry"/>
                </mxCell>
                <mxCell id="2" value="" style="swimlane;startSize=0;" vertex="1" parent="1">
                    <mxGeometry x="75" y="40" width="125" height="240" as="geometry"/>
                </mxCell>
                <mxCell id="3" value="Exercise&amp;nbsp;&lt;br&gt;&lt;br&gt;t.string :name&lt;br&gt;t.string :body_part" style="text;html=1;align=center;verticalAlign=middle;resizable=0;points=[];autosize=1;strokeColor=none;fillColor=none;" vertex="1" parent="2">
                    <mxGeometry x="5" y="60" width="120" height="70" as="geometry"/>
                </mxCell>
                <mxCell id="4" value="" style="swimlane;startSize=0;" vertex="1" parent="1">
                    <mxGeometry x="280" y="40" width="125" height="240" as="geometry"/>
                </mxCell>
                <mxCell id="9" value="Program&lt;br&gt;&lt;br&gt;t.integer :exercise_id&lt;br&gt;t.integer :workout_id&lt;br&gt;t.integer :sets&lt;br&gt;t.integer :reps&lt;br&gt;t.integer :order" style="text;html=1;align=center;verticalAlign=middle;resizable=0;points=[];autosize=1;strokeColor=none;fillColor=none;" vertex="1" parent="4">
                    <mxGeometry y="50" width="130" height="110" as="geometry"/>
                </mxCell>
                <mxCell id="5" value="" style="swimlane;startSize=0;" vertex="1" parent="1">
                    <mxGeometry x="480" y="40" width="120" height="240" as="geometry">
                        <mxRectangle x="480" y="40" width="50" height="40" as="alternateBounds"/>
                    </mxGeometry>
                </mxCell>
                <mxCell id="8" value="Workout&lt;br&gt;&lt;br&gt;t.string :name&lt;br&gt;t.integer :day" style="text;html=1;align=center;verticalAlign=middle;resizable=0;points=[];autosize=1;strokeColor=none;fillColor=none;" vertex="1" parent="5">
                    <mxGeometry x="10" y="60" width="100" height="70" as="geometry"/>
                </mxCell>
                <mxCell id="13" value="" style="edgeStyle=none;html=1;" edge="1" parent="1" source="8">
                    <mxGeometry relative="1" as="geometry">
                        <mxPoint x="410" y="145" as="targetPoint"/>
                    </mxGeometry>
                </mxCell>
                <mxCell id="14" value="id: 1&lt;br&gt;name: bench press&lt;br&gt;body_part: chest" style="text;html=1;align=center;verticalAlign=middle;resizable=0;points=[];autosize=1;strokeColor=none;fillColor=none;" vertex="1" parent="1">
                    <mxGeometry x="70" y="310" width="130" height="60" as="geometry"/>
                </mxCell>
                <mxCell id="18" value="" style="swimlane;startSize=0;" vertex="1" parent="1">
                    <mxGeometry x="470" y="305" width="140" height="80" as="geometry"/>
                </mxCell>
                <mxCell id="16" value="name: chest and back&lt;br&gt;day: 1" style="text;html=1;align=center;verticalAlign=middle;resizable=0;points=[];autosize=1;strokeColor=none;fillColor=none;" vertex="1" parent="18">
                    <mxGeometry y="15" width="140" height="40" as="geometry"/>
                </mxCell>
                <mxCell id="20" value="" style="swimlane;startSize=0;" vertex="1" parent="1">
                    <mxGeometry x="67.5" y="305" width="140" height="70" as="geometry"/>
                </mxCell>
                <mxCell id="21" value="" style="swimlane;startSize=0;" vertex="1" parent="1">
                    <mxGeometry x="277.5" y="305" width="130" height="100" as="geometry"/>
                </mxCell>
                <mxCell id="15" value="workout_id: 1&lt;br&gt;exercise_id: 1&amp;nbsp;&lt;br&gt;sets: 4&lt;br&gt;reps: 10&lt;br&gt;order: 1" style="text;html=1;align=center;verticalAlign=middle;resizable=0;points=[];autosize=1;strokeColor=none;fillColor=none;" vertex="1" parent="21">
                    <mxGeometry x="15" y="5" width="100" height="90" as="geometry"/>
                </mxCell>
            </root>
        </mxGraphModel>
    </diagram>
</mxfile>